<svg width="1440" height="1024" viewBox="0 0 1440 1024" fill="none" xmlns="http://www.w3.org/2000/svg">
<rect width="1440" height="1024" fill="white"/>
<path d="M34.688 95.008H37.984V98.688H34.688V97.76H37.024V95.92H34.688V95.008ZM33.968 95.008H34.928V99.728H33.968V95.008ZM33.36 88.144H40.944V89.152H33.36V88.144ZM32.96 92.928H41.392V93.984H32.96V92.928ZM39.216 93.36H40.368V99.952C40.368 100.272 40.3253 100.517 40.24 100.688C40.1547 100.859 39.9947 100.992 39.76 101.088C39.5253 101.173 39.2213 101.227 38.848 101.248C38.4747 101.269 38.016 101.28 37.472 101.28C37.44 101.12 37.376 100.933 37.28 100.72C37.1947 100.517 37.1093 100.341 37.024 100.192C37.4613 100.203 37.856 100.208 38.208 100.208C38.5707 100.219 38.8053 100.224 38.912 100.224C39.0293 100.213 39.1093 100.187 39.152 100.144C39.1947 100.101 39.216 100.032 39.216 99.936V93.36ZM36.768 86.592H37.888C37.8453 87.4453 37.76 88.208 37.632 88.88C37.504 89.552 37.2907 90.1387 36.992 90.64C36.6933 91.1413 36.272 91.5733 35.728 91.936C35.1947 92.288 34.5013 92.5867 33.648 92.832C33.5947 92.704 33.504 92.5547 33.376 92.384C33.2587 92.2027 33.1413 92.064 33.024 91.968C33.8027 91.7653 34.4267 91.5147 34.896 91.216C35.376 90.9067 35.744 90.5387 36 90.112C36.256 89.6747 36.4373 89.168 36.544 88.592C36.6613 88.0053 36.736 87.3387 36.768 86.592ZM36.544 90.368L37.264 89.664C37.6693 89.8987 38.1013 90.1547 38.56 90.432C39.0187 90.7093 39.4613 90.9813 39.888 91.248C40.3147 91.5147 40.6667 91.7493 40.944 91.952L40.192 92.752C39.9253 92.5493 39.584 92.3093 39.168 92.032C38.752 91.744 38.3147 91.456 37.856 91.168C37.3973 90.8693 36.96 90.6027 36.544 90.368ZM31.616 94.096H32.72C32.72 94.096 32.72 94.128 32.72 94.192C32.72 94.2453 32.72 94.3147 32.72 94.4C32.72 94.4747 32.7147 94.5387 32.704 94.592C32.6187 95.9573 32.528 97.0613 32.432 97.904C32.3467 98.7467 32.2453 99.392 32.128 99.84C32.0107 100.288 31.8667 100.603 31.696 100.784C31.5573 100.944 31.4027 101.056 31.232 101.12C31.0613 101.184 30.8587 101.227 30.624 101.248C30.4213 101.259 30.1387 101.259 29.776 101.248C29.424 101.248 29.0507 101.243 28.656 101.232C28.6453 101.072 28.6133 100.896 28.56 100.704C28.5067 100.512 28.432 100.347 28.336 100.208C28.7413 100.251 29.1093 100.272 29.44 100.272C29.7813 100.283 30.0267 100.288 30.176 100.288C30.4427 100.299 30.64 100.235 30.768 100.096C30.896 99.968 31.008 99.7013 31.104 99.296C31.2107 98.88 31.3067 98.272 31.392 97.472C31.4773 96.6613 31.552 95.6 31.616 94.288V94.096ZM26.496 97.68C27.0507 97.5627 27.7013 97.4133 28.448 97.232C29.2053 97.04 29.984 96.8373 30.784 96.624L30.896 97.568C30.16 97.7707 29.4347 97.9733 28.72 98.176C28.0053 98.368 27.3493 98.544 26.752 98.704L26.496 97.68ZM27.088 87.44H31.392V88.496H27.088V87.44ZM30.96 87.44H32.064C32.032 87.9947 31.9893 88.5867 31.936 89.216C31.8827 89.8347 31.8293 90.4587 31.776 91.088C31.7227 91.7067 31.664 92.2933 31.6 92.848C31.5467 93.4027 31.4933 93.8933 31.44 94.32L30.32 94.368C30.384 93.9307 30.448 93.4293 30.512 92.864C30.5867 92.288 30.6507 91.6907 30.704 91.072C30.7573 90.4427 30.8053 89.8187 30.848 89.2C30.9013 88.5813 30.9387 87.9947 30.96 87.44ZM27.696 89.552L28.752 89.616C28.72 90.2027 28.672 90.832 28.608 91.504C28.5547 92.176 28.496 92.8267 28.432 93.456C28.368 94.0747 28.304 94.6133 28.24 95.072H27.184C27.2587 94.6027 27.328 94.048 27.392 93.408C27.456 92.768 27.5147 92.112 27.568 91.44C27.6213 90.7573 27.664 90.128 27.696 89.552ZM27.568 94.096H31.776V95.072H27.568V94.096ZM48.96 87.52H56.832V88.672H48.96V87.52ZM53.648 92.288H54.864V99.744C54.864 100.117 54.8107 100.4 54.704 100.592C54.5973 100.795 54.4107 100.949 54.144 101.056C53.8667 101.141 53.488 101.189 53.008 101.2C52.5387 101.221 51.9093 101.232 51.12 101.232C51.0987 101.072 51.0507 100.88 50.976 100.656C50.9013 100.432 50.816 100.229 50.72 100.048C51.104 100.059 51.4667 100.069 51.808 100.08C52.1493 100.091 52.448 100.091 52.704 100.08C52.96 100.08 53.136 100.08 53.232 100.08C53.3813 100.069 53.488 100.043 53.552 100C53.616 99.9467 53.648 99.856 53.648 99.728V92.288ZM48.256 91.936H57.28V93.088H48.256V91.936ZM45.072 93.184L46.128 92.128L46.256 92.192V101.328H45.072V93.184ZM46.912 89.984L48.048 90.4C47.6427 91.072 47.1733 91.744 46.64 92.416C46.1067 93.088 45.5467 93.7173 44.96 94.304C44.384 94.88 43.8133 95.3973 43.248 95.856C43.184 95.7707 43.0987 95.664 42.992 95.536C42.896 95.408 42.7947 95.28 42.688 95.152C42.5813 95.024 42.4853 94.9227 42.4 94.848C42.9547 94.4533 43.504 93.9947 44.048 93.472C44.6027 92.9493 45.1253 92.3893 45.616 91.792C46.1173 91.1947 46.5493 90.592 46.912 89.984ZM46.272 86.544L47.424 87.024C47.072 87.4827 46.6613 87.9573 46.192 88.448C45.7333 88.928 45.248 89.392 44.736 89.84C44.2347 90.2773 43.744 90.6667 43.264 91.008C43.2107 90.9227 43.1413 90.8213 43.056 90.704C42.9813 90.576 42.896 90.4533 42.8 90.336C42.7147 90.208 42.6347 90.112 42.56 90.048C43.008 89.7387 43.4613 89.3867 43.92 88.992C44.3893 88.5973 44.8267 88.1867 45.232 87.76C45.648 87.3333 45.9947 86.928 46.272 86.544ZM59.328 90.496H72.736V93.168H71.68V91.52H60.352V93.168H59.328V90.496ZM61.536 88.912L62.432 88.56C62.6027 88.912 62.768 89.2907 62.928 89.696C63.088 90.1013 63.2 90.4427 63.264 90.72L62.304 91.152C62.2507 90.864 62.1493 90.5067 62 90.08C61.8507 89.6533 61.696 89.264 61.536 88.912ZM65.184 88.752L66.112 88.464C66.2613 88.816 66.4053 89.2053 66.544 89.632C66.6827 90.048 66.7893 90.3947 66.864 90.672L65.888 91.04C65.824 90.752 65.7227 90.3947 65.584 89.968C65.456 89.5307 65.3227 89.1253 65.184 88.752ZM71.408 86.768L71.808 87.744C71.0613 87.872 70.208 87.984 69.248 88.08C68.2987 88.176 67.296 88.256 66.24 88.32C65.1947 88.384 64.1387 88.4373 63.072 88.48C62.0053 88.5227 60.9813 88.5493 60 88.56C59.9893 88.4213 59.9573 88.2613 59.904 88.08C59.8507 87.8987 59.7973 87.7387 59.744 87.6C60.736 87.5787 61.7653 87.5467 62.832 87.504C63.8987 87.4613 64.9547 87.4027 66 87.328C67.0453 87.2533 68.032 87.1733 68.96 87.088C69.8987 86.992 70.7147 86.8853 71.408 86.768ZM69.728 88.224L70.8 88.576C70.5547 89.0027 70.288 89.44 70 89.888C69.712 90.336 69.4453 90.7147 69.2 91.024L68.336 90.72C68.496 90.496 68.6613 90.24 68.832 89.952C69.0133 89.6533 69.1787 89.3547 69.328 89.056C69.488 88.7467 69.6213 88.4693 69.728 88.224ZM63.904 96C64.448 96.736 65.1733 97.3813 66.08 97.936C66.9867 98.48 68.0213 98.9227 69.184 99.264C70.3467 99.6053 71.5733 99.8453 72.864 99.984C72.7893 100.08 72.7093 100.187 72.624 100.304C72.5493 100.432 72.4747 100.56 72.4 100.688C72.336 100.827 72.2773 100.949 72.224 101.056C70.9227 100.875 69.6853 100.587 68.512 100.192C67.3387 99.7973 66.2827 99.2853 65.344 98.656C64.416 98.0267 63.6427 97.28 63.024 96.416L63.904 96ZM63.376 95.648H70.24V96.688H63.376V95.648ZM69.872 95.648H70.096L70.304 95.6L70.944 96.08C70.432 97.0293 69.7387 97.8347 68.864 98.496C68 99.1467 67.0293 99.6747 65.952 100.08C64.8747 100.496 63.7653 100.816 62.624 101.04C62.592 100.944 62.544 100.832 62.48 100.704C62.416 100.587 62.3467 100.464 62.272 100.336C62.1973 100.208 62.128 100.107 62.064 100.032C63.184 99.8507 64.256 99.584 65.28 99.232C66.3147 98.88 67.232 98.4267 68.032 97.872C68.832 97.3173 69.4453 96.64 69.872 95.84V95.648ZM60.48 93.328H71.552V94.352H60.48V93.328ZM63.824 91.92L64.976 92.08C64.5707 94.2347 63.9307 96.0587 63.056 97.552C62.1813 99.0347 60.9707 100.229 59.424 101.136C59.392 101.061 59.328 100.96 59.232 100.832C59.136 100.715 59.04 100.592 58.944 100.464C58.848 100.347 58.7573 100.256 58.672 100.192C60.144 99.4133 61.2853 98.336 62.096 96.96C62.9067 95.584 63.4827 93.904 63.824 91.92ZM81.152 87.376H88.192V88.496H81.152V87.376ZM80.608 93.008H89.408V94.144H80.608V93.008ZM84.384 90.88H85.584V99.76C85.584 100.123 85.536 100.4 85.44 100.592C85.344 100.784 85.168 100.933 84.912 101.04C84.656 101.125 84.3147 101.179 83.888 101.2C83.4613 101.232 82.928 101.248 82.288 101.248C82.256 101.088 82.192 100.891 82.096 100.656C82.0107 100.432 81.9253 100.235 81.84 100.064C82.352 100.075 82.8107 100.08 83.216 100.08C83.6213 100.091 83.8933 100.091 84.032 100.08C84.1707 100.069 84.2613 100.043 84.304 100C84.3573 99.9573 84.384 99.8773 84.384 99.76V90.88ZM87.76 87.376H88.048L88.288 87.312L89.088 87.888C88.768 88.3467 88.4 88.816 87.984 89.296C87.568 89.7653 87.1307 90.2133 86.672 90.64C86.224 91.0667 85.7813 91.4453 85.344 91.776C85.2587 91.6587 85.1413 91.5307 84.992 91.392C84.8533 91.2427 84.736 91.1307 84.64 91.056C85.024 90.768 85.4133 90.4267 85.808 90.032C86.2027 89.6267 86.5707 89.216 86.912 88.8C87.264 88.384 87.5467 88 87.76 87.648V87.376ZM74.688 89.856H79.968V90.992H74.688V89.856ZM77.104 86.56L78.256 86.688C78.096 87.488 77.92 88.3413 77.728 89.248C77.536 90.1547 77.3333 91.0667 77.12 91.984C76.9067 92.9013 76.6987 93.7813 76.496 94.624C76.2933 95.4667 76.096 96.2187 75.904 96.88L74.912 96.336C75.0827 95.728 75.264 95.024 75.456 94.224C75.6587 93.4133 75.8613 92.5653 76.064 91.68C76.2667 90.784 76.4587 89.8987 76.64 89.024C76.8213 88.1387 76.976 87.3173 77.104 86.56ZM75.488 95.84L76.16 94.992C76.7573 95.3227 77.3707 95.7067 78 96.144C78.6293 96.5707 79.2107 97.008 79.744 97.456C80.288 97.904 80.72 98.3253 81.04 98.72L80.304 99.696C79.9947 99.3013 79.5733 98.8693 79.04 98.4C78.5173 97.9307 77.9467 97.472 77.328 97.024C76.7093 96.576 76.096 96.1813 75.488 95.84ZM79.568 89.856H79.76L79.968 89.824L80.688 89.968C80.5493 92.0267 80.2613 93.7973 79.824 95.28C79.3973 96.752 78.8267 97.9787 78.112 98.96C77.3973 99.9413 76.5493 100.725 75.568 101.312C75.4933 101.163 75.3813 100.992 75.232 100.8C75.0933 100.619 74.96 100.469 74.832 100.352C75.7173 99.872 76.4907 99.1787 77.152 98.272C77.8133 97.3547 78.3467 96.2187 78.752 94.864C79.1573 93.4987 79.4293 91.9147 79.568 90.112V89.856ZM90.864 91.696H105.136V92.784H90.864V91.696ZM92.272 88.576H101.552V89.632H92.272V88.576ZM94.88 97.072H102.416V98.032H94.88V97.072ZM94.88 99.712H102.416V100.752H94.88V99.712ZM96.384 86.56H97.568V92.272H96.384V86.56ZM103.392 87.104L104.416 87.664C103.349 89.0613 102.117 90.3413 100.72 91.504C99.3333 92.6667 97.84 93.7067 96.24 94.624C94.64 95.5413 92.9867 96.3253 91.28 96.976C91.2373 96.88 91.168 96.7733 91.072 96.656C90.976 96.528 90.8747 96.4053 90.768 96.288C90.672 96.16 90.5867 96.0533 90.512 95.968C92.24 95.3707 93.8987 94.6347 95.488 93.76C97.0773 92.8853 98.544 91.888 99.888 90.768C101.243 89.648 102.411 88.4267 103.392 87.104ZM94.224 94.464H103.168V101.216H101.936V95.488H95.424V101.28H94.224V94.464ZM109.104 96.096C109.563 96.096 109.973 96.208 110.336 96.432C110.699 96.6453 110.992 96.9387 111.216 97.312C111.44 97.6747 111.552 98.08 111.552 98.528C111.552 98.976 111.44 99.3867 111.216 99.76C110.992 100.123 110.699 100.416 110.336 100.64C109.973 100.864 109.563 100.976 109.104 100.976C108.656 100.976 108.245 100.864 107.872 100.64C107.509 100.416 107.216 100.123 106.992 99.76C106.779 99.3867 106.672 98.976 106.672 98.528C106.672 98.08 106.779 97.6747 106.992 97.312C107.216 96.9387 107.515 96.6453 107.888 96.432C108.261 96.208 108.667 96.096 109.104 96.096ZM109.104 100.16C109.563 100.16 109.947 100.005 110.256 99.696C110.576 99.376 110.736 98.9867 110.736 98.528C110.736 98.24 110.661 97.9733 110.512 97.728C110.373 97.4827 110.181 97.2853 109.936 97.136C109.691 96.9867 109.413 96.912 109.104 96.912C108.816 96.912 108.549 96.9867 108.304 97.136C108.059 97.2853 107.861 97.4827 107.712 97.728C107.563 97.9733 107.488 98.24 107.488 98.528C107.488 98.8267 107.563 99.104 107.712 99.36C107.861 99.6053 108.059 99.8027 108.304 99.952C108.549 100.091 108.816 100.16 109.104 100.16ZM125.104 96.096C125.563 96.096 125.973 96.208 126.336 96.432C126.699 96.6453 126.992 96.9387 127.216 97.312C127.44 97.6747 127.552 98.08 127.552 98.528C127.552 98.976 127.44 99.3867 127.216 99.76C126.992 100.123 126.699 100.416 126.336 100.64C125.973 100.864 125.563 100.976 125.104 100.976C124.656 100.976 124.245 100.864 123.872 100.64C123.509 100.416 123.216 100.123 122.992 99.76C122.779 99.3867 122.672 98.976 122.672 98.528C122.672 98.08 122.779 97.6747 122.992 97.312C123.216 96.9387 123.515 96.6453 123.888 96.432C124.261 96.208 124.667 96.096 125.104 96.096ZM125.104 100.16C125.563 100.16 125.947 100.005 126.256 99.696C126.576 99.376 126.736 98.9867 126.736 98.528C126.736 98.24 126.661 97.9733 126.512 97.728C126.373 97.4827 126.181 97.2853 125.936 97.136C125.691 96.9867 125.413 96.912 125.104 96.912C124.816 96.912 124.549 96.9867 124.304 97.136C124.059 97.2853 123.861 97.4827 123.712 97.728C123.563 97.9733 123.488 98.24 123.488 98.528C123.488 98.8267 123.563 99.104 123.712 99.36C123.861 99.6053 124.059 99.8027 124.304 99.952C124.549 100.091 124.816 100.16 125.104 100.16ZM141.104 96.096C141.563 96.096 141.973 96.208 142.336 96.432C142.699 96.6453 142.992 96.9387 143.216 97.312C143.44 97.6747 143.552 98.08 143.552 98.528C143.552 98.976 143.44 99.3867 143.216 99.76C142.992 100.123 142.699 100.416 142.336 100.64C141.973 100.864 141.563 100.976 141.104 100.976C140.656 100.976 140.245 100.864 139.872 100.64C139.509 100.416 139.216 100.123 138.992 99.76C138.779 99.3867 138.672 98.976 138.672 98.528C138.672 98.08 138.779 97.6747 138.992 97.312C139.216 96.9387 139.515 96.6453 139.888 96.432C140.261 96.208 140.667 96.096 141.104 96.096ZM141.104 100.16C141.563 100.16 141.947 100.005 142.256 99.696C142.576 99.376 142.736 98.9867 142.736 98.528C142.736 98.24 142.661 97.9733 142.512 97.728C142.373 97.4827 142.181 97.2853 141.936 97.136C141.691 96.9867 141.413 96.912 141.104 96.912C140.816 96.912 140.549 96.9867 140.304 97.136C140.059 97.2853 139.861 97.4827 139.712 97.728C139.563 97.9733 139.488 98.24 139.488 98.528C139.488 98.8267 139.563 99.104 139.712 99.36C139.861 99.6053 140.059 99.8027 140.304 99.952C140.549 100.091 140.816 100.16 141.104 100.16ZM157.104 96.096C157.563 96.096 157.973 96.208 158.336 96.432C158.699 96.6453 158.992 96.9387 159.216 97.312C159.44 97.6747 159.552 98.08 159.552 98.528C159.552 98.976 159.44 99.3867 159.216 99.76C158.992 100.123 158.699 100.416 158.336 100.64C157.973 100.864 157.563 100.976 157.104 100.976C156.656 100.976 156.245 100.864 155.872 100.64C155.509 100.416 155.216 100.123 154.992 99.76C154.779 99.3867 154.672 98.976 154.672 98.528C154.672 98.08 154.779 97.6747 154.992 97.312C155.216 96.9387 155.515 96.6453 155.888 96.432C156.261 96.208 156.667 96.096 157.104 96.096ZM157.104 100.16C157.563 100.16 157.947 100.005 158.256 99.696C158.576 99.376 158.736 98.9867 158.736 98.528C158.736 98.24 158.661 97.9733 158.512 97.728C158.373 97.4827 158.181 97.2853 157.936 97.136C157.691 96.9867 157.413 96.912 157.104 96.912C156.816 96.912 156.549 96.9867 156.304 97.136C156.059 97.2853 155.861 97.4827 155.712 97.728C155.563 97.9733 155.488 98.24 155.488 98.528C155.488 98.8267 155.563 99.104 155.712 99.36C155.861 99.6053 156.059 99.8027 156.304 99.952C156.549 100.091 156.816 100.16 157.104 100.16Z" fill="#697077"/>
<path d="M104.296 39.512H117.576V42.744H104.296V39.512ZM104.296 45.624H118.152V49.048H104.296V45.624ZM108.936 27.896H112.616V57.848H108.936V27.896ZM102.408 33.304H119.4V50.136H115.72V36.728H105.896V50.296H102.408V33.304ZM90.568 33.752H100.168V37.208H90.568V33.752ZM94.44 27.832H98.184V35.352H94.44V27.832ZM98.504 41.208C98.7387 41.3573 99.0587 41.6027 99.464 41.944C99.8693 42.2853 100.307 42.6587 100.776 43.064C101.245 43.448 101.672 43.8107 102.056 44.152C102.44 44.4933 102.707 44.7387 102.856 44.888L100.616 47.992C100.381 47.6507 100.072 47.256 99.688 46.808C99.3253 46.36 98.9413 45.9013 98.536 45.432C98.1307 44.9627 97.736 44.5253 97.352 44.12C96.9893 43.6933 96.6587 43.3413 96.36 43.064L98.504 41.208ZM98.76 33.752H99.496L100.136 33.592L102.28 34.968C101.555 37.0373 100.595 39.0213 99.4 40.92C98.2267 42.7973 96.936 44.504 95.528 46.04C94.12 47.576 92.6693 48.8453 91.176 49.848C91.0907 49.5067 90.9307 49.1013 90.696 48.632C90.4827 48.1413 90.2587 47.672 90.024 47.224C89.7893 46.776 89.576 46.4347 89.384 46.2C90.728 45.4107 92.008 44.3973 93.224 43.16C94.4613 41.9013 95.56 40.5253 96.52 39.032C97.5013 37.5173 98.248 35.9813 98.76 34.424V33.752ZM94.44 44.696L98.184 40.184V57.88H94.44V44.696ZM130.824 42.712H134.376C134.376 42.712 134.365 42.808 134.344 43C134.344 43.1707 134.344 43.3733 134.344 43.608C134.344 43.8213 134.333 44.0027 134.312 44.152C134.184 46.8187 134.045 48.9947 133.896 50.68C133.747 52.3653 133.555 53.6667 133.32 54.584C133.107 55.5013 132.84 56.1413 132.52 56.504C132.157 56.952 131.773 57.2613 131.368 57.432C130.963 57.6027 130.504 57.7307 129.992 57.816C129.544 57.88 128.957 57.912 128.232 57.912C127.507 57.912 126.739 57.9013 125.928 57.88C125.907 57.368 125.8 56.792 125.608 56.152C125.416 55.5333 125.181 55 124.904 54.552C125.608 54.616 126.269 54.6587 126.888 54.68C127.507 54.7013 127.976 54.712 128.296 54.712C128.787 54.712 129.171 54.584 129.448 54.328C129.683 54.072 129.875 53.5493 130.024 52.76C130.195 51.9707 130.344 50.8187 130.472 49.304C130.6 47.768 130.717 45.7627 130.824 43.288V42.712ZM121.64 49.656C122.707 49.4853 123.944 49.2613 125.352 48.984C126.76 48.6853 128.2 48.376 129.672 48.056L129.96 51.16C128.659 51.48 127.347 51.7893 126.024 52.088C124.701 52.3867 123.464 52.6747 122.312 52.952L121.64 49.656ZM122.696 29.08H131.048V32.504H122.696V29.08ZM130.056 29.08H133.576C133.533 30.3173 133.469 31.6187 133.384 32.984C133.32 34.3493 133.235 35.7147 133.128 37.08C133.043 38.424 132.957 39.704 132.872 40.92C132.787 42.1147 132.68 43.1813 132.552 44.12L129.032 44.088C129.139 43.1067 129.245 42.008 129.352 40.792C129.48 39.5547 129.587 38.2747 129.672 36.952C129.757 35.608 129.832 34.264 129.896 32.92C129.981 31.576 130.035 30.296 130.056 29.08ZM123.72 34.264L127.208 34.456C127.144 35.7147 127.059 37.048 126.952 38.456C126.845 39.8427 126.728 41.1867 126.6 42.488C126.493 43.7893 126.376 44.9307 126.248 45.912H122.792C122.941 44.9093 123.08 43.7467 123.208 42.424C123.336 41.08 123.443 39.6933 123.528 38.264C123.613 36.8347 123.677 35.5013 123.72 34.264ZM123.912 42.712H131.496V45.912H123.912V42.712ZM143.656 30.36L146.504 28.952C147.101 29.6773 147.731 30.4773 148.392 31.352C149.075 32.2053 149.704 33.0373 150.28 33.848C150.877 34.6587 151.357 35.3947 151.72 36.056L148.648 37.688C148.328 37.048 147.891 36.312 147.336 35.48C146.781 34.6267 146.173 33.752 145.512 32.856C144.872 31.96 144.253 31.128 143.656 30.36ZM135.976 37.464C135.933 37.208 135.837 36.888 135.688 36.504C135.56 36.0987 135.421 35.6827 135.272 35.256C135.123 34.8293 134.984 34.4667 134.856 34.168C135.133 34.0827 135.411 33.9333 135.688 33.72C135.965 33.5067 136.253 33.2293 136.552 32.888C136.744 32.6747 137.053 32.2907 137.48 31.736C137.907 31.1813 138.365 30.5307 138.856 29.784C139.347 29.0373 139.784 28.2587 140.168 27.448L143.848 28.504C143.016 29.848 142.077 31.1707 141.032 32.472C139.987 33.752 138.973 34.8187 137.992 35.672V35.736C137.992 35.736 137.885 35.8 137.672 35.928C137.48 36.0347 137.245 36.184 136.968 36.376C136.712 36.5467 136.477 36.728 136.264 36.92C136.072 37.112 135.976 37.2933 135.976 37.464ZM135.976 37.464L135.848 34.776L137.544 33.688L147.752 32.76C147.859 33.2293 147.976 33.7413 148.104 34.296C148.253 34.8507 148.392 35.3093 148.52 35.672C146.493 35.8853 144.787 36.0773 143.4 36.248C142.035 36.3973 140.904 36.536 140.008 36.664C139.133 36.7707 138.429 36.8667 137.896 36.952C137.384 37.0373 136.979 37.1227 136.68 37.208C136.403 37.272 136.168 37.3573 135.976 37.464ZM140.424 41.592L143.784 42.488C142.995 44.28 141.939 45.9333 140.616 47.448C139.293 48.9627 137.885 50.2 136.392 51.16C136.2 50.9467 135.955 50.68 135.656 50.36C135.357 50.04 135.037 49.72 134.696 49.4C134.376 49.08 134.088 48.824 133.832 48.632C135.261 47.8427 136.563 46.84 137.736 45.624C138.909 44.408 139.805 43.064 140.424 41.592ZM146.408 44.376H147.112L147.752 44.248L150.152 45.272C149.341 47.5973 148.2 49.592 146.728 51.256C145.277 52.92 143.571 54.2853 141.608 55.352C139.667 56.44 137.544 57.304 135.24 57.944C135.069 57.496 134.792 56.9733 134.408 56.376C134.045 55.8 133.683 55.32 133.32 54.936C134.835 54.616 136.285 54.1573 137.672 53.56C139.059 52.9627 140.317 52.2373 141.448 51.384C142.6 50.5307 143.603 49.5707 144.456 48.504C145.309 47.416 145.96 46.2213 146.408 44.92V44.376ZM140.328 45.912C140.989 47.3627 141.864 48.6747 142.952 49.848C144.061 51.0213 145.384 52.024 146.92 52.856C148.456 53.688 150.173 54.3173 152.072 54.744C151.816 54.9573 151.539 55.2453 151.24 55.608C150.963 55.992 150.696 56.376 150.44 56.76C150.184 57.1653 149.96 57.528 149.768 57.848C147.763 57.272 145.971 56.4613 144.392 55.416C142.835 54.3707 141.469 53.112 140.296 51.64C139.144 50.168 138.173 48.5147 137.384 46.68L140.328 45.912ZM140.008 44.376H147.304V47.32H137.704L140.008 44.376ZM143.72 38.552L146.248 36.76C146.909 37.2507 147.592 37.816 148.296 38.456C149 39.096 149.672 39.736 150.312 40.376C150.973 40.9947 151.507 41.56 151.912 42.072L149.224 44.12C148.84 43.608 148.339 43.032 147.72 42.392C147.101 41.7307 146.44 41.0693 145.736 40.408C145.032 39.7467 144.36 39.128 143.72 38.552ZM139.272 37.144L142.536 38.488C141.939 39.1707 141.277 39.896 140.552 40.664C139.827 41.4107 139.08 42.1253 138.312 42.808C137.544 43.4907 136.829 44.088 136.168 44.6C135.976 44.3653 135.731 44.088 135.432 43.768C135.155 43.4267 134.856 43.0853 134.536 42.744C134.216 42.4027 133.928 42.136 133.672 41.944C134.653 41.3253 135.656 40.5893 136.68 39.736C137.704 38.8613 138.568 37.9973 139.272 37.144Z" fill="#21272A"/>
<rect x="22" y="17" width="48" height="48" rx="24" fill="#EADDFF"/>
<path fill-rule="evenodd" clip-rule="evenodd" d="M53.2003 36.2C53.2003 40.1765 49.9767 43.4 46.0003 43.4C42.0238 43.4 38.8003 40.1765 38.8003 36.2C38.8003 32.2235 42.0238 29 46.0003 29C49.9767 29 53.2003 32.2235 53.2003 36.2ZM50.8003 36.2C50.8003 38.851 48.6513 41 46.0003 41C43.3493 41 41.2003 38.851 41.2003 36.2C41.2003 33.549 43.3493 31.4 46.0003 31.4C48.6513 31.4 50.8003 33.549 50.8003 36.2Z" fill="#4F378A"/>
<path d="M46.0003 47C38.231 47 31.6114 51.5941 29.0898 58.0305C29.7041 58.6404 30.3512 59.2174 31.0282 59.7585C32.9059 53.8492 38.7964 49.4 46.0003 49.4C53.2042 49.4 59.0947 53.8492 60.9724 59.7585C61.6494 59.2174 62.2965 58.6404 62.9108 58.0305C60.3892 51.5941 53.7696 47 46.0003 47Z" fill="#4F378A"/>
<path d="M1272.2 90.664C1272.46 92.1787 1272.79 93.5867 1273.21 94.888C1273.63 96.1893 1274.17 97.3733 1274.82 98.44C1275.49 99.496 1276.29 100.413 1277.22 101.192C1278.16 101.971 1279.27 102.595 1280.55 103.064C1280.43 103.16 1280.31 103.288 1280.17 103.448C1280.03 103.608 1279.9 103.768 1279.77 103.928C1279.65 104.099 1279.55 104.248 1279.46 104.376C1278.13 103.843 1276.98 103.149 1276.01 102.296C1275.04 101.443 1274.22 100.445 1273.54 99.304C1272.87 98.1627 1272.31 96.888 1271.86 95.48C1271.42 94.072 1271.05 92.5413 1270.76 90.888L1272.2 90.664ZM1273.59 90.424L1274.81 89.816C1275.03 90.136 1275.26 90.488 1275.5 90.872C1275.73 91.256 1275.94 91.6293 1276.14 91.992C1276.33 92.3547 1276.47 92.68 1276.57 92.968L1275.29 93.672C1275.19 93.384 1275.05 93.0533 1274.87 92.68C1274.7 92.3067 1274.5 91.9227 1274.28 91.528C1274.06 91.1333 1273.83 90.7653 1273.59 90.424ZM1278.25 90.44L1279.75 90.696C1279.47 92.2533 1279.12 93.72 1278.68 95.096C1278.24 96.472 1277.67 97.7413 1276.95 98.904C1276.25 100.067 1275.35 101.112 1274.26 102.04C1273.18 102.957 1271.85 103.731 1270.28 104.36C1270.23 104.253 1270.15 104.125 1270.04 103.976C1269.93 103.837 1269.82 103.693 1269.69 103.544C1269.57 103.405 1269.46 103.288 1269.37 103.192C1270.87 102.627 1272.14 101.917 1273.16 101.064C1274.19 100.211 1275.04 99.24 1275.7 98.152C1276.38 97.0533 1276.91 95.8587 1277.3 94.568C1277.7 93.2667 1278.01 91.8907 1278.25 90.44ZM1269.1 89.56L1270.52 89.992C1270.18 90.8987 1269.77 91.8 1269.3 92.696C1268.83 93.592 1268.33 94.4347 1267.78 95.224C1267.24 96.0133 1266.67 96.712 1266.09 97.32C1266.05 97.192 1265.98 97.032 1265.88 96.84C1265.78 96.648 1265.68 96.4507 1265.56 96.248C1265.45 96.0453 1265.35 95.8907 1265.26 95.784C1265.77 95.272 1266.26 94.6853 1266.73 94.024C1267.21 93.3627 1267.65 92.648 1268.06 91.88C1268.46 91.112 1268.81 90.3387 1269.1 89.56ZM1267.48 93.8L1268.9 92.376L1268.92 92.392V104.328H1267.48V93.8ZM1282.54 90.712H1295.5V92.008H1282.54V90.712ZM1283.27 93.112H1294.87V94.328H1283.27V93.112ZM1281.94 95.544H1296.04V96.84H1281.94V95.544ZM1288.2 89.496H1289.72V96.6H1288.2V89.496ZM1288.18 95.992L1289.48 96.632C1289.05 97.08 1288.56 97.5227 1288.01 97.96C1287.46 98.3867 1286.87 98.7867 1286.23 99.16C1285.6 99.5227 1284.96 99.8587 1284.3 100.168C1283.63 100.467 1282.99 100.717 1282.36 100.92C1282.29 100.792 1282.19 100.653 1282.07 100.504C1281.95 100.344 1281.83 100.195 1281.7 100.056C1281.59 99.9067 1281.47 99.7787 1281.37 99.672C1282 99.5013 1282.63 99.288 1283.27 99.032C1283.92 98.776 1284.55 98.488 1285.16 98.168C1285.78 97.8373 1286.34 97.4907 1286.86 97.128C1287.37 96.7547 1287.81 96.376 1288.18 95.992ZM1290.36 96.216C1290.67 97.3253 1291.09 98.328 1291.62 99.224C1292.17 100.12 1292.85 100.888 1293.66 101.528C1294.48 102.157 1295.45 102.632 1296.57 102.952C1296.46 103.059 1296.34 103.192 1296.22 103.352C1296.09 103.512 1295.97 103.672 1295.85 103.832C1295.74 104.003 1295.65 104.157 1295.58 104.296C1294.39 103.891 1293.37 103.325 1292.52 102.6C1291.68 101.875 1290.97 101 1290.39 99.976C1289.82 98.952 1289.35 97.7893 1288.98 96.488L1290.36 96.216ZM1294.55 97.24L1295.78 98.184C1295.39 98.4827 1294.97 98.7813 1294.52 99.08C1294.08 99.3787 1293.65 99.6613 1293.21 99.928C1292.78 100.184 1292.38 100.413 1291.99 100.616L1291.05 99.8C1291.42 99.576 1291.82 99.32 1292.25 99.032C1292.67 98.744 1293.09 98.4453 1293.5 98.136C1293.9 97.816 1294.25 97.5173 1294.55 97.24ZM1283.11 102.936C1283.75 102.808 1284.48 102.653 1285.3 102.472C1286.13 102.291 1286.99 102.093 1287.91 101.88C1288.83 101.667 1289.74 101.453 1290.65 101.24L1290.79 102.6C1289.95 102.813 1289.1 103.021 1288.23 103.224C1287.38 103.437 1286.55 103.635 1285.75 103.816C1284.96 104.008 1284.24 104.179 1283.59 104.328L1283.11 102.936ZM1285.35 99.176L1286.39 98.152L1286.86 98.28V103H1285.35V99.176ZM1300.95 90.68H1309.43V91.896H1300.95V90.68ZM1297.78 94.12H1312.33V95.432H1297.78V94.12ZM1300.26 90.68H1301.75V93.512C1301.75 94.0987 1301.69 94.7227 1301.56 95.384C1301.44 96.0347 1301.2 96.664 1300.84 97.272C1300.48 97.88 1299.93 98.4133 1299.21 98.872C1299.14 98.7653 1299.04 98.6427 1298.9 98.504C1298.78 98.3653 1298.64 98.232 1298.49 98.104C1298.34 97.976 1298.21 97.88 1298.1 97.816C1298.74 97.4107 1299.22 96.9627 1299.53 96.472C1299.84 95.9813 1300.03 95.48 1300.12 94.968C1300.22 94.4453 1300.26 93.944 1300.26 93.464V90.68ZM1308.68 90.68H1310.2V96.952C1310.2 97.2827 1310.15 97.5493 1310.06 97.752C1309.97 97.944 1309.79 98.0933 1309.53 98.2C1309.28 98.3067 1308.97 98.3707 1308.58 98.392C1308.2 98.4133 1307.74 98.424 1307.19 98.424C1307.16 98.2427 1307.1 98.0293 1307.02 97.784C1306.93 97.5387 1306.83 97.3307 1306.73 97.16C1307.08 97.1707 1307.42 97.176 1307.74 97.176C1308.07 97.176 1308.29 97.1707 1308.39 97.16C1308.58 97.16 1308.68 97.08 1308.68 96.92V90.68ZM1304.28 89.336L1305.93 89.64C1305.78 89.9813 1305.63 90.296 1305.48 90.584C1305.34 90.872 1305.21 91.128 1305.08 91.352L1303.62 91.048C1303.74 90.8027 1303.86 90.52 1303.99 90.2C1304.12 89.8693 1304.22 89.5813 1304.28 89.336ZM1303.29 92.872L1304.01 91.992C1304.31 92.0987 1304.62 92.2373 1304.94 92.408C1305.26 92.568 1305.55 92.7333 1305.83 92.904C1306.12 93.0747 1306.36 93.2453 1306.55 93.416L1305.78 94.36C1305.61 94.2 1305.39 94.0293 1305.11 93.848C1304.83 93.6667 1304.54 93.4907 1304.22 93.32C1303.9 93.1387 1303.59 92.9893 1303.29 92.872ZM1303.13 96.392L1303.88 95.512C1304.18 95.64 1304.49 95.7947 1304.82 95.976C1305.15 96.1467 1305.47 96.3227 1305.77 96.504C1306.08 96.6853 1306.33 96.856 1306.52 97.016L1305.75 97.976C1305.57 97.816 1305.33 97.64 1305.03 97.448C1304.73 97.256 1304.42 97.0693 1304.09 96.888C1303.76 96.696 1303.44 96.5307 1303.13 96.392ZM1297.7 102.584H1312.3V103.896H1297.7V102.584ZM1299.46 98.776H1310.57V103.24H1309.1V99.976H1307.27V103.24H1305.88V99.976H1304.07V103.24H1302.68V99.976H1300.89V103.24H1299.46V98.776Z" fill="#21272A"/>
<path d="M1349.18 96.856V101.72H1347.69V98.264H1345.72V96.856H1349.18ZM1349.18 100.904C1349.54 101.469 1350.05 101.885 1350.7 102.152C1351.35 102.419 1352.12 102.573 1353.02 102.616C1353.47 102.637 1354.02 102.653 1354.66 102.664C1355.3 102.664 1355.98 102.659 1356.68 102.648C1357.39 102.627 1358.08 102.605 1358.74 102.584C1359.42 102.563 1360 102.531 1360.5 102.488C1360.45 102.605 1360.39 102.755 1360.33 102.936C1360.26 103.117 1360.21 103.299 1360.15 103.48C1360.1 103.672 1360.06 103.843 1360.02 103.992C1359.57 104.024 1359.03 104.045 1358.41 104.056C1357.8 104.067 1357.17 104.072 1356.5 104.072C1355.85 104.083 1355.22 104.083 1354.62 104.072C1354.01 104.072 1353.47 104.067 1353.02 104.056C1351.99 104.003 1351.11 103.832 1350.38 103.544C1349.65 103.267 1349.03 102.813 1348.52 102.184C1348.17 102.515 1347.8 102.845 1347.42 103.176C1347.03 103.507 1346.63 103.848 1346.22 104.2L1345.45 102.68C1345.82 102.435 1346.21 102.157 1346.62 101.848C1347.03 101.539 1347.43 101.224 1347.82 100.904H1349.18ZM1346.39 90.584L1347.4 89.64C1347.71 89.8 1348.03 89.992 1348.38 90.216C1348.72 90.44 1349.03 90.6693 1349.32 90.904C1349.62 91.1387 1349.86 91.3573 1350.04 91.56L1348.97 92.584C1348.8 92.3813 1348.57 92.1573 1348.28 91.912C1347.99 91.6667 1347.68 91.432 1347.35 91.208C1347.03 90.9733 1346.71 90.7653 1346.39 90.584ZM1345.77 93.816L1346.76 92.84C1347.09 93 1347.43 93.1867 1347.77 93.4C1348.12 93.6027 1348.45 93.816 1348.76 94.04C1349.07 94.264 1349.32 94.4773 1349.51 94.68L1348.46 95.768C1348.29 95.5547 1348.05 95.3307 1347.75 95.096C1347.45 94.8613 1347.13 94.6373 1346.78 94.424C1346.43 94.2 1346.1 93.9973 1345.77 93.816ZM1351.19 90.344H1359.32V91.768H1351.19V90.344ZM1350.14 94.024H1360.44V95.432H1350.14V94.024ZM1353.34 94.76L1354.98 95.24C1354.76 95.7947 1354.52 96.3813 1354.26 97C1354.01 97.608 1353.75 98.1947 1353.5 98.76C1353.24 99.3147 1352.99 99.8107 1352.76 100.248L1351.51 99.8C1351.74 99.352 1351.96 98.8347 1352.18 98.248C1352.42 97.6613 1352.63 97.064 1352.82 96.456C1353.03 95.8373 1353.2 95.272 1353.34 94.76ZM1350.26 99.592C1350.97 99.5493 1351.78 99.496 1352.71 99.432C1353.65 99.3573 1354.64 99.2773 1355.69 99.192C1356.74 99.1067 1357.79 99.0213 1358.84 98.936L1358.86 100.296C1357.86 100.403 1356.86 100.504 1355.85 100.6C1354.85 100.696 1353.89 100.787 1352.97 100.872C1352.05 100.957 1351.22 101.032 1350.49 101.096L1350.26 99.592ZM1356.2 96.76L1357.42 96.152C1357.82 96.632 1358.22 97.1547 1358.6 97.72C1358.99 98.2853 1359.35 98.84 1359.66 99.384C1359.98 99.928 1360.22 100.424 1360.38 100.872L1359.05 101.576C1358.9 101.128 1358.67 100.627 1358.38 100.072C1358.08 99.5173 1357.74 98.952 1357.35 98.376C1356.98 97.8 1356.59 97.2613 1356.2 96.76ZM1369.1 93.096H1375.46V94.552H1369.1V93.096ZM1374.7 93.096H1376.17C1376.17 93.096 1376.17 93.144 1376.17 93.24C1376.17 93.3253 1376.17 93.4267 1376.17 93.544C1376.17 93.6507 1376.17 93.7413 1376.17 93.816C1376.11 95.4587 1376.06 96.8507 1376.01 97.992C1375.95 99.1227 1375.9 100.056 1375.83 100.792C1375.77 101.517 1375.69 102.088 1375.59 102.504C1375.5 102.909 1375.38 103.203 1375.24 103.384C1375.06 103.629 1374.87 103.8 1374.68 103.896C1374.5 103.992 1374.27 104.061 1374.01 104.104C1373.75 104.125 1373.43 104.136 1373.03 104.136C1372.64 104.147 1372.23 104.136 1371.82 104.104C1371.79 103.891 1371.74 103.645 1371.66 103.368C1371.58 103.091 1371.48 102.845 1371.35 102.632C1371.77 102.664 1372.15 102.685 1372.5 102.696C1372.87 102.707 1373.13 102.712 1373.3 102.712C1373.44 102.712 1373.56 102.696 1373.66 102.664C1373.75 102.621 1373.84 102.552 1373.91 102.456C1374.02 102.328 1374.11 102.077 1374.18 101.704C1374.27 101.331 1374.34 100.797 1374.39 100.104C1374.46 99.4 1374.51 98.504 1374.55 97.416C1374.59 96.3173 1374.64 94.984 1374.7 93.416V93.096ZM1371.19 89.768H1372.7C1372.69 90.9413 1372.66 92.0987 1372.63 93.24C1372.61 94.3707 1372.55 95.4693 1372.44 96.536C1372.33 97.592 1372.16 98.6 1371.93 99.56C1371.69 100.509 1371.37 101.389 1370.95 102.2C1370.55 103 1370.02 103.709 1369.37 104.328C1369.29 104.2 1369.19 104.061 1369.05 103.912C1368.92 103.773 1368.78 103.64 1368.63 103.512C1368.49 103.384 1368.36 103.283 1368.23 103.208C1368.83 102.643 1369.31 101.992 1369.69 101.256C1370.06 100.52 1370.35 99.7147 1370.55 98.84C1370.77 97.9653 1370.91 97.0373 1371 96.056C1371.09 95.064 1371.14 94.04 1371.16 92.984C1371.18 91.928 1371.19 90.856 1371.19 89.768ZM1362.38 90.776H1368.6V92.12H1362.38V90.776ZM1361.82 94.536H1368.89V95.928H1361.82V94.536ZM1366.49 97.48L1367.7 97.144C1367.91 97.6027 1368.11 98.104 1368.31 98.648C1368.53 99.1813 1368.72 99.6987 1368.89 100.2C1369.07 100.701 1369.2 101.133 1369.29 101.496L1367.98 101.944C1367.89 101.56 1367.77 101.112 1367.61 100.6C1367.45 100.088 1367.27 99.56 1367.06 99.016C1366.87 98.472 1366.68 97.96 1366.49 97.48ZM1362.44 102.472L1362.31 101.192L1363 100.696L1368.22 99.544C1368.24 99.736 1368.27 99.96 1368.31 100.216C1368.35 100.472 1368.4 100.675 1368.44 100.824C1367.46 101.059 1366.63 101.261 1365.96 101.432C1365.3 101.592 1364.75 101.731 1364.33 101.848C1363.91 101.955 1363.58 102.045 1363.34 102.12C1363.09 102.195 1362.9 102.259 1362.76 102.312C1362.63 102.365 1362.53 102.419 1362.44 102.472ZM1362.44 102.472C1362.42 102.365 1362.38 102.232 1362.31 102.072C1362.26 101.901 1362.2 101.725 1362.14 101.544C1362.07 101.363 1362.01 101.213 1361.96 101.096C1362.1 101.053 1362.23 100.936 1362.34 100.744C1362.46 100.552 1362.58 100.301 1362.71 99.992C1362.78 99.8533 1362.87 99.6187 1362.98 99.288C1363.1 98.9467 1363.23 98.552 1363.37 98.104C1363.51 97.656 1363.64 97.1707 1363.77 96.648C1363.91 96.1253 1364.02 95.6133 1364.1 95.112L1365.59 95.544C1365.43 96.248 1365.23 96.968 1365 97.704C1364.77 98.44 1364.51 99.144 1364.25 99.816C1363.99 100.488 1363.73 101.091 1363.45 101.624V101.672C1363.45 101.672 1363.39 101.699 1363.29 101.752C1363.19 101.805 1363.07 101.875 1362.94 101.96C1362.81 102.045 1362.69 102.136 1362.58 102.232C1362.49 102.317 1362.44 102.397 1362.44 102.472ZM1378.84 90.76L1379.85 89.832C1380.16 90.0773 1380.48 90.3493 1380.81 90.648C1381.14 90.9467 1381.45 91.2453 1381.75 91.544C1382.05 91.832 1382.3 92.0987 1382.49 92.344L1381.4 93.416C1381.22 93.1707 1380.98 92.8933 1380.7 92.584C1380.41 92.2747 1380.1 91.96 1379.77 91.64C1379.45 91.32 1379.14 91.0267 1378.84 90.76ZM1380.17 104.088L1379.86 102.664L1380.25 102.104L1383.13 100.12C1383.17 100.323 1383.24 100.557 1383.34 100.824C1383.43 101.08 1383.52 101.288 1383.59 101.448C1382.92 101.928 1382.37 102.323 1381.94 102.632C1381.53 102.941 1381.2 103.187 1380.95 103.368C1380.72 103.549 1380.54 103.693 1380.42 103.8C1380.32 103.907 1380.23 104.003 1380.17 104.088ZM1377.69 94.472H1381.24V95.928H1377.69V94.472ZM1380.17 104.088C1380.13 103.981 1380.05 103.853 1379.94 103.704C1379.85 103.565 1379.75 103.427 1379.64 103.288C1379.53 103.149 1379.44 103.048 1379.35 102.984C1379.51 102.845 1379.68 102.637 1379.86 102.36C1380.05 102.083 1380.14 101.736 1380.14 101.32V94.472H1381.64V102.28C1381.64 102.28 1381.59 102.328 1381.48 102.424C1381.38 102.509 1381.26 102.621 1381.11 102.76C1380.97 102.899 1380.83 103.048 1380.68 103.208C1380.54 103.368 1380.42 103.523 1380.31 103.672C1380.22 103.832 1380.17 103.971 1380.17 104.088ZM1384.62 95.784H1390.71V97.224H1384.62V95.784ZM1383.98 95.784H1385.54V101.848C1385.54 102.179 1385.61 102.397 1385.74 102.504C1385.87 102.6 1386.19 102.648 1386.68 102.648C1386.77 102.648 1386.91 102.648 1387.11 102.648C1387.33 102.648 1387.56 102.648 1387.82 102.648C1388.08 102.648 1388.35 102.648 1388.62 102.648C1388.88 102.648 1389.12 102.648 1389.34 102.648C1389.55 102.648 1389.71 102.648 1389.83 102.648C1390.14 102.648 1390.38 102.584 1390.54 102.456C1390.7 102.328 1390.81 102.077 1390.87 101.704C1390.94 101.331 1390.98 100.776 1391.02 100.04C1391.13 100.125 1391.28 100.211 1391.45 100.296C1391.62 100.381 1391.79 100.456 1391.98 100.52C1392.16 100.584 1392.32 100.632 1392.47 100.664C1392.4 101.549 1392.28 102.243 1392.12 102.744C1391.96 103.245 1391.71 103.597 1391.37 103.8C1391.03 104.003 1390.55 104.104 1389.93 104.104C1389.84 104.104 1389.68 104.104 1389.45 104.104C1389.22 104.104 1388.96 104.104 1388.66 104.104C1388.38 104.104 1388.08 104.104 1387.78 104.104C1387.5 104.104 1387.23 104.104 1387 104.104C1386.78 104.104 1386.63 104.104 1386.55 104.104C1385.9 104.104 1385.39 104.04 1385.02 103.912C1384.64 103.784 1384.38 103.555 1384.22 103.224C1384.06 102.904 1383.98 102.445 1383.98 101.848V95.784ZM1383.67 90.584H1391.4V98.04H1389.88V92.088H1383.67V90.584ZM1394.02 95.512H1408.06V96.84H1394.02V95.512ZM1400.18 96.216H1401.74V102.824C1401.74 103.219 1401.68 103.517 1401.58 103.72C1401.47 103.923 1401.27 104.072 1400.98 104.168C1400.71 104.264 1400.35 104.323 1399.91 104.344C1399.49 104.376 1398.96 104.392 1398.34 104.392C1398.3 104.189 1398.23 103.965 1398.12 103.72C1398.02 103.475 1397.93 103.261 1397.83 103.08C1398.12 103.091 1398.4 103.096 1398.68 103.096C1398.96 103.107 1399.2 103.107 1399.42 103.096C1399.63 103.096 1399.77 103.096 1399.85 103.096C1399.98 103.096 1400.06 103.069 1400.1 103.016C1400.16 102.973 1400.18 102.899 1400.18 102.792V96.216ZM1401.54 96.84C1401.93 97.7147 1402.44 98.5253 1403.08 99.272C1403.73 100.008 1404.49 100.643 1405.37 101.176C1406.24 101.709 1407.21 102.12 1408.26 102.408C1408.16 102.515 1408.04 102.648 1407.91 102.808C1407.78 102.957 1407.66 103.112 1407.54 103.272C1407.44 103.443 1407.35 103.597 1407.27 103.736C1406.18 103.384 1405.2 102.899 1404.31 102.28C1403.43 101.651 1402.65 100.909 1401.98 100.056C1401.31 99.192 1400.77 98.2373 1400.33 97.192L1401.54 96.84ZM1405.83 97.032L1407.13 97.976C1406.77 98.2853 1406.38 98.6 1405.96 98.92C1405.54 99.2293 1405.13 99.5227 1404.71 99.8C1404.31 100.067 1403.93 100.307 1403.58 100.52L1402.55 99.672C1402.9 99.448 1403.28 99.1867 1403.67 98.888C1404.08 98.5893 1404.47 98.28 1404.86 97.96C1405.24 97.6293 1405.57 97.32 1405.83 97.032ZM1395.02 98.072L1396.04 97.16C1396.37 97.3307 1396.72 97.5333 1397.1 97.768C1397.48 97.992 1397.84 98.2213 1398.17 98.456C1398.51 98.6907 1398.79 98.9147 1399 99.128L1397.93 100.168C1397.74 99.9653 1397.47 99.7413 1397.14 99.496C1396.81 99.24 1396.46 98.9893 1396.09 98.744C1395.73 98.488 1395.37 98.264 1395.02 98.072ZM1393.98 102.008C1394.53 101.805 1395.18 101.565 1395.91 101.288C1396.65 101 1397.43 100.696 1398.25 100.376C1399.07 100.045 1399.89 99.72 1400.7 99.4L1400.98 100.68C1400.28 100.989 1399.56 101.309 1398.82 101.64C1398.1 101.96 1397.39 102.269 1396.7 102.568C1396.01 102.856 1395.38 103.117 1394.79 103.352L1393.98 102.008ZM1395.56 92.936H1405.05V94.296H1395.56V92.936ZM1404.63 90.328H1404.79L1405.06 90.28L1406.28 90.344C1406.27 90.952 1406.25 91.5973 1406.22 92.28C1406.18 92.9627 1406.14 93.6453 1406.09 94.328C1406.03 95 1405.98 95.64 1405.91 96.248L1404.34 96.168C1404.38 95.7093 1404.41 95.224 1404.44 94.712C1404.48 94.1893 1404.51 93.672 1404.54 93.16C1404.56 92.6373 1404.57 92.152 1404.58 91.704C1404.61 91.2453 1404.62 90.8507 1404.63 90.52V90.328ZM1395.06 90.328H1405.06V91.736H1395.06V90.328Z" fill="#21272A"/>
</svg>
